<mxfile host="app.diagrams.net" modified="2023-02-07T09:35:27.647Z" agent="5.0 (Windows NT 10.0; Win64; x64) AppleWebKit/537.36 (KHTML, like Gecko) Chrome/109.0.0.0 Safari/537.36" etag="s4qMXzU-rPA9rXeulGVB" version="20.8.16" type="github">
  <diagram name="第 1 页" id="fSW9POhgTLXBQTBBJMN1">
    <mxGraphModel dx="3088" dy="1933" grid="1" gridSize="10" guides="1" tooltips="1" connect="1" arrows="1" fold="1" page="1" pageScale="1" pageWidth="827" pageHeight="1169" math="0" shadow="0">
      <root>
        <mxCell id="0" />
        <mxCell id="1" parent="0" />
        <mxCell id="JdIku7EspXfbWxuUCBQc-2" value="" style="whiteSpace=wrap;html=1;aspect=fixed;fontColor=#000000;" vertex="1" parent="1">
          <mxGeometry x="-460" y="440" width="480" height="480" as="geometry" />
        </mxCell>
        <mxCell id="JdIku7EspXfbWxuUCBQc-3" value="" style="rounded=0;whiteSpace=wrap;html=1;strokeColor=#000000;fontColor=#009900;" vertex="1" parent="1">
          <mxGeometry x="810" y="800" width="340" height="140" as="geometry" />
        </mxCell>
        <mxCell id="JdIku7EspXfbWxuUCBQc-5" value="&lt;p style=&quot;margin:0px;margin-top:4px;text-align:center;&quot;&gt;&lt;i&gt;&amp;lt;&amp;lt;Interface&amp;gt;&amp;gt;&lt;/i&gt;&lt;br&gt;&lt;b&gt;SingletonBeanRegistry&lt;/b&gt;&lt;/p&gt;&lt;hr size=&quot;1&quot;&gt;&lt;p style=&quot;margin:0px;margin-left:4px;&quot;&gt;+ getSingleton(String beanName): Obj&lt;br&gt;&lt;/p&gt;" style="verticalAlign=top;align=left;overflow=fill;fontSize=12;fontFamily=Helvetica;html=1;" vertex="1" parent="1">
          <mxGeometry x="130" y="250" width="210" height="70" as="geometry" />
        </mxCell>
        <mxCell id="JdIku7EspXfbWxuUCBQc-6" value="&lt;p style=&quot;margin:0px;margin-top:4px;text-align:center;&quot;&gt;&lt;b&gt;DefaultSingletonBeanFactory&lt;/b&gt;&lt;/p&gt;&lt;hr size=&quot;1&quot;&gt;&lt;p style=&quot;margin:0px;margin-left:4px;&quot;&gt;+ SingletonObjects: Map&amp;lt;String, Obj&amp;gt;&lt;/p&gt;&lt;hr size=&quot;1&quot;&gt;&lt;p style=&quot;margin:0px;margin-left:4px;&quot;&gt;+ getSingleton(String beanName): Obj&lt;/p&gt;&lt;p style=&quot;margin:0px;margin-left:4px;&quot;&gt;+ addSingleton(String beanName, Obj obj): void&lt;br&gt;&lt;/p&gt;" style="verticalAlign=top;align=left;overflow=fill;fontSize=12;fontFamily=Helvetica;html=1;" vertex="1" parent="1">
          <mxGeometry x="125" y="393.5" width="220" height="115" as="geometry" />
        </mxCell>
        <mxCell id="JdIku7EspXfbWxuUCBQc-7" value="" style="endArrow=block;dashed=1;endFill=0;endSize=12;html=1;rounded=0;entryX=0.5;entryY=1;entryDx=0;entryDy=0;exitX=0.5;exitY=0;exitDx=0;exitDy=0;" edge="1" parent="1" source="JdIku7EspXfbWxuUCBQc-6" target="JdIku7EspXfbWxuUCBQc-5">
          <mxGeometry width="160" relative="1" as="geometry">
            <mxPoint x="340" y="410" as="sourcePoint" />
            <mxPoint x="500" y="410" as="targetPoint" />
          </mxGeometry>
        </mxCell>
        <mxCell id="JdIku7EspXfbWxuUCBQc-8" value="" style="endArrow=block;dashed=1;endFill=0;endSize=12;html=1;rounded=0;entryX=1;entryY=0.5;entryDx=0;entryDy=0;exitX=0.5;exitY=0;exitDx=0;exitDy=0;" edge="1" parent="1" source="JdIku7EspXfbWxuUCBQc-14" target="JdIku7EspXfbWxuUCBQc-75">
          <mxGeometry width="160" relative="1" as="geometry">
            <mxPoint x="590" y="406" as="sourcePoint" />
            <mxPoint x="590" y="330" as="targetPoint" />
            <Array as="points">
              <mxPoint x="910" y="40" />
            </Array>
          </mxGeometry>
        </mxCell>
        <mxCell id="JdIku7EspXfbWxuUCBQc-9" value="Extends" style="endArrow=block;endSize=16;endFill=0;html=1;rounded=0;" edge="1" parent="1">
          <mxGeometry width="160" relative="1" as="geometry">
            <mxPoint x="580" y="580" as="sourcePoint" />
            <mxPoint x="590" y="480" as="targetPoint" />
          </mxGeometry>
        </mxCell>
        <mxCell id="JdIku7EspXfbWxuUCBQc-10" value="&lt;p style=&quot;margin:0px;margin-top:4px;text-align:center;&quot;&gt;&lt;i&gt;&amp;lt;&amp;lt;Interface&amp;gt;&amp;gt;&lt;/i&gt;&lt;br&gt;&lt;b&gt;BeanDefinitionRegistry&lt;/b&gt;&lt;/p&gt;&lt;hr size=&quot;1&quot;&gt;&lt;p style=&quot;margin:0px;margin-left:4px;&quot;&gt;+ registerBeanDefinition(String beanName,&amp;nbsp;&lt;/p&gt;&lt;p style=&quot;margin:0px;margin-left:4px;&quot;&gt;BeanDefinition bd): void&lt;br&gt;&lt;/p&gt;" style="verticalAlign=top;align=left;overflow=fill;fontSize=12;fontFamily=Helvetica;html=1;" vertex="1" parent="1">
          <mxGeometry x="120" y="780" width="210" height="80" as="geometry" />
        </mxCell>
        <mxCell id="JdIku7EspXfbWxuUCBQc-11" value="&lt;p style=&quot;margin:0px;margin-top:4px;text-align:center;&quot;&gt;&lt;b&gt;DefaultListableBeanFactory&lt;/b&gt;&lt;/p&gt;&lt;hr size=&quot;1&quot;&gt;&lt;p style=&quot;margin:0px;margin-left:4px;&quot;&gt;+ beanDefinitonMap: Map&amp;lt;String, BeanDefiniton&amp;gt;&lt;/p&gt;&lt;hr size=&quot;1&quot;&gt;&lt;p style=&quot;margin:0px;margin-left:4px;&quot;&gt;&lt;br&gt;&lt;/p&gt;&amp;nbsp;+ getBeanDefinition(String beanName): BeanDefinition&lt;p style=&quot;margin:0px;margin-left:4px;&quot;&gt;+ registerBeanDefinition(String beanName, BeanDefinition bd): void&lt;br&gt;&lt;/p&gt;&lt;font color=&quot;#009900&quot;&gt;&amp;nbsp;+&lt;/font&gt;&amp;nbsp;&lt;span style=&quot;border-color: var(--border-color); color: rgb(0, 153, 0); font-family: &amp;quot;JetBrains Mono&amp;quot;, monospace; font-size: 10.5pt;&quot;&gt;getBeanDefinition&lt;/span&gt;&lt;span style=&quot;color: rgb(0, 153, 0); background-color: rgb(255, 255, 255);&quot;&gt;(String beanName):BeanDefinition&lt;br&gt;&lt;/span&gt;&lt;font color=&quot;#009900&quot;&gt;&lt;font style=&quot;border-color: var(--border-color);&quot;&gt;&amp;nbsp;+&lt;/font&gt;&amp;nbsp;getBeanDefinitionNames&lt;span style=&quot;border-color: var(--border-color); background-color: rgb(255, 255, 255);&quot;&gt;():String[]&lt;/span&gt;&lt;/font&gt;&lt;br style=&quot;border-color: var(--border-color); color: rgb(0, 153, 0);&quot;&gt;&lt;p style=&quot;margin:0px;margin-left:4px;&quot;&gt;&lt;span style=&quot;color: rgb(0, 153, 0);&quot;&gt;+&amp;nbsp;&lt;/span&gt;&lt;span style=&quot;border-color: var(--border-color); color: rgb(0, 153, 0); font-family: &amp;quot;JetBrains Mono&amp;quot;, monospace; font-size: 10.5pt; background-color: rgb(255, 255, 255);&quot;&gt;preInstantiateSingletons:void&lt;/span&gt;&lt;br&gt;&lt;/p&gt;&lt;p style=&quot;margin:0px;margin-left:4px;&quot;&gt;&lt;span style=&quot;border-color: var(--border-color); color: rgb(0, 153, 0); font-family: &amp;quot;JetBrains Mono&amp;quot;, monospace; font-size: 10.5pt; background-color: rgb(255, 255, 255);&quot;&gt;+ getBeansofType(Class&amp;lt;T&amp;gt; type): Map&amp;lt;String, T&amp;gt;&lt;/span&gt;&lt;/p&gt;&lt;p style=&quot;margin:0px;margin-left:4px;&quot;&gt;&lt;span style=&quot;border-color: var(--border-color); color: rgb(0, 153, 0); font-family: &amp;quot;JetBrains Mono&amp;quot;, monospace; font-size: 10.5pt; background-color: rgb(255, 255, 255);&quot;&gt;&lt;br&gt;&lt;/span&gt;&lt;/p&gt;" style="verticalAlign=top;align=left;overflow=fill;fontSize=12;fontFamily=Helvetica;html=1;" vertex="1" parent="1">
          <mxGeometry x="445" y="840" width="290" height="190" as="geometry" />
        </mxCell>
        <mxCell id="JdIku7EspXfbWxuUCBQc-12" value="" style="endArrow=block;dashed=1;endFill=0;endSize=12;html=1;rounded=0;entryX=1;entryY=0.5;entryDx=0;entryDy=0;exitX=-0.002;exitY=0.365;exitDx=0;exitDy=0;exitPerimeter=0;" edge="1" parent="1" source="JdIku7EspXfbWxuUCBQc-11" target="JdIku7EspXfbWxuUCBQc-10">
          <mxGeometry width="160" relative="1" as="geometry">
            <mxPoint x="270" y="750" as="sourcePoint" />
            <mxPoint x="430" y="750" as="targetPoint" />
          </mxGeometry>
        </mxCell>
        <mxCell id="JdIku7EspXfbWxuUCBQc-13" value="Extends" style="endArrow=block;endSize=16;endFill=0;html=1;rounded=0;entryX=1;entryY=0.5;entryDx=0;entryDy=0;exitX=0;exitY=0.202;exitDx=0;exitDy=0;exitPerimeter=0;" edge="1" parent="1" target="JdIku7EspXfbWxuUCBQc-6">
          <mxGeometry width="160" relative="1" as="geometry">
            <mxPoint x="440" y="451.3119999999999" as="sourcePoint" />
            <mxPoint x="520" y="540" as="targetPoint" />
          </mxGeometry>
        </mxCell>
        <mxCell id="JdIku7EspXfbWxuUCBQc-14" value="AbstractBeanFactory" style="swimlane;fontStyle=1;align=center;verticalAlign=top;childLayout=stackLayout;horizontal=1;startSize=26;horizontalStack=0;resizeParent=1;resizeParentMax=0;resizeLast=0;collapsible=1;marginBottom=0;fontColor=default;" vertex="1" parent="1">
          <mxGeometry x="460" y="300" width="260" height="150" as="geometry" />
        </mxCell>
        <mxCell id="JdIku7EspXfbWxuUCBQc-15" value="" style="line;strokeWidth=1;fillColor=none;align=left;verticalAlign=middle;spacingTop=-1;spacingLeft=3;spacingRight=3;rotatable=0;labelPosition=right;points=[];portConstraint=eastwest;strokeColor=inherit;fontColor=default;" vertex="1" parent="JdIku7EspXfbWxuUCBQc-14">
          <mxGeometry y="26" width="260" height="8" as="geometry" />
        </mxCell>
        <mxCell id="JdIku7EspXfbWxuUCBQc-16" value="+ getBeanDefinition(String beanName)&#xa;: BeanDefinition" style="text;strokeColor=none;fillColor=none;align=left;verticalAlign=top;spacingLeft=4;spacingRight=4;overflow=hidden;rotatable=0;points=[[0,0.5],[1,0.5]];portConstraint=eastwest;fontColor=default;" vertex="1" parent="JdIku7EspXfbWxuUCBQc-14">
          <mxGeometry y="34" width="260" height="26" as="geometry" />
        </mxCell>
        <mxCell id="JdIku7EspXfbWxuUCBQc-17" value="+ creatBean(String beanName, BeanDefinition bd): Obj" style="text;strokeColor=none;fillColor=none;align=left;verticalAlign=top;spacingLeft=4;spacingRight=4;overflow=hidden;rotatable=0;points=[[0,0.5],[1,0.5]];portConstraint=eastwest;fontColor=default;" vertex="1" parent="JdIku7EspXfbWxuUCBQc-14">
          <mxGeometry y="60" width="260" height="26" as="geometry" />
        </mxCell>
        <mxCell id="JdIku7EspXfbWxuUCBQc-18" value="+ creatBean(String beanName, BeanDefinition beanDefinition, Object[] args)&#xa;: Obj&#xa;" style="text;strokeColor=none;fillColor=none;align=left;verticalAlign=top;spacingLeft=4;spacingRight=4;overflow=hidden;rotatable=0;points=[[0,0.5],[1,0.5]];portConstraint=eastwest;fontColor=#000000;" vertex="1" parent="JdIku7EspXfbWxuUCBQc-14">
          <mxGeometry y="86" width="260" height="64" as="geometry" />
        </mxCell>
        <mxCell id="JdIku7EspXfbWxuUCBQc-19" value="&lt;p style=&quot;margin:0px;margin-top:4px;text-align:center;&quot;&gt;&lt;i&gt;&amp;lt;&amp;lt;Interface&amp;gt;&amp;gt;&lt;/i&gt;&lt;br&gt;&lt;b&gt;InstantiationStrategy&lt;/b&gt;&lt;br&gt;&lt;/p&gt;&lt;p style=&quot;margin:0px;margin-left:4px;&quot;&gt;&lt;br&gt;&lt;/p&gt;&lt;hr size=&quot;1&quot;&gt;&lt;p style=&quot;margin:0px;margin-left:4px;&quot;&gt;+ instantiate(BeanDefinition beanDefinition,&amp;nbsp;&lt;/p&gt;&lt;p style=&quot;margin:0px;margin-left:4px;&quot;&gt;String beanName, Constructor ctor,&lt;/p&gt;&lt;p style=&quot;margin:0px;margin-left:4px;&quot;&gt;&amp;nbsp;Object[] args)：Object&lt;/p&gt;&lt;p style=&quot;margin:0px;margin-left:4px;&quot;&gt;&lt;br&gt;&lt;/p&gt;" style="verticalAlign=top;align=left;overflow=fill;fontSize=12;fontFamily=Helvetica;html=1;fontColor=#000000;" vertex="1" parent="1">
          <mxGeometry x="830" y="520" width="190" height="90" as="geometry" />
        </mxCell>
        <mxCell id="JdIku7EspXfbWxuUCBQc-20" value="SimpleInstantiationStrategy" style="swimlane;fontStyle=1;align=center;verticalAlign=top;childLayout=stackLayout;horizontal=1;startSize=26;horizontalStack=0;resizeParent=1;resizeParentMax=0;resizeLast=0;collapsible=1;marginBottom=0;fontColor=#000000;" vertex="1" parent="1">
          <mxGeometry x="810" y="673" width="210" height="90" as="geometry" />
        </mxCell>
        <mxCell id="JdIku7EspXfbWxuUCBQc-21" value="" style="line;strokeWidth=1;fillColor=none;align=left;verticalAlign=middle;spacingTop=-1;spacingLeft=3;spacingRight=3;rotatable=0;labelPosition=right;points=[];portConstraint=eastwest;strokeColor=inherit;fontColor=#000000;" vertex="1" parent="JdIku7EspXfbWxuUCBQc-20">
          <mxGeometry y="26" width="210" height="8" as="geometry" />
        </mxCell>
        <mxCell id="JdIku7EspXfbWxuUCBQc-22" value="+ instantiate(BeanDefinition beanDefinition, &#xa;String beanName, Constructor ctor,&#xa; Object[] args)：Object" style="text;strokeColor=none;fillColor=none;align=left;verticalAlign=top;spacingLeft=4;spacingRight=4;overflow=hidden;rotatable=0;points=[[0,0.5],[1,0.5]];portConstraint=eastwest;fontColor=#000000;" vertex="1" parent="JdIku7EspXfbWxuUCBQc-20">
          <mxGeometry y="34" width="210" height="56" as="geometry" />
        </mxCell>
        <mxCell id="JdIku7EspXfbWxuUCBQc-23" value="CglibSubclassingInstantiationStrategy" style="swimlane;fontStyle=1;align=center;verticalAlign=top;childLayout=stackLayout;horizontal=1;startSize=26;horizontalStack=0;resizeParent=1;resizeParentMax=0;resizeLast=0;collapsible=1;marginBottom=0;fontColor=#000000;" vertex="1" parent="1">
          <mxGeometry x="1070" y="674.5" width="270" height="90" as="geometry" />
        </mxCell>
        <mxCell id="JdIku7EspXfbWxuUCBQc-24" value="" style="line;strokeWidth=1;fillColor=none;align=left;verticalAlign=middle;spacingTop=-1;spacingLeft=3;spacingRight=3;rotatable=0;labelPosition=right;points=[];portConstraint=eastwest;strokeColor=inherit;fontColor=#000000;" vertex="1" parent="JdIku7EspXfbWxuUCBQc-23">
          <mxGeometry y="26" width="270" height="8" as="geometry" />
        </mxCell>
        <mxCell id="JdIku7EspXfbWxuUCBQc-25" value="+ instantiate(BeanDefinition beanDefinition, &#xa;String beanName, Constructor ctor,&#xa; Object[] args)：Object" style="text;strokeColor=none;fillColor=none;align=left;verticalAlign=top;spacingLeft=4;spacingRight=4;overflow=hidden;rotatable=0;points=[[0,0.5],[1,0.5]];portConstraint=eastwest;fontColor=#000000;" vertex="1" parent="JdIku7EspXfbWxuUCBQc-23">
          <mxGeometry y="34" width="270" height="56" as="geometry" />
        </mxCell>
        <mxCell id="JdIku7EspXfbWxuUCBQc-26" value="" style="endArrow=block;dashed=1;endFill=0;endSize=12;html=1;rounded=0;fontColor=#000000;exitX=0.442;exitY=0.006;exitDx=0;exitDy=0;exitPerimeter=0;entryX=0.5;entryY=1;entryDx=0;entryDy=0;" edge="1" parent="1" source="JdIku7EspXfbWxuUCBQc-20" target="JdIku7EspXfbWxuUCBQc-19">
          <mxGeometry width="160" relative="1" as="geometry">
            <mxPoint x="950" y="640" as="sourcePoint" />
            <mxPoint x="1110" y="640" as="targetPoint" />
          </mxGeometry>
        </mxCell>
        <mxCell id="JdIku7EspXfbWxuUCBQc-27" value="" style="endArrow=block;dashed=1;endFill=0;endSize=12;html=1;rounded=0;fontColor=#000000;exitX=0.442;exitY=0.006;exitDx=0;exitDy=0;exitPerimeter=0;entryX=0.996;entryY=0.43;entryDx=0;entryDy=0;entryPerimeter=0;" edge="1" parent="1" target="JdIku7EspXfbWxuUCBQc-19">
          <mxGeometry width="160" relative="1" as="geometry">
            <mxPoint x="1152.8600000000001" y="674.5" as="sourcePoint" />
            <mxPoint x="1147.1399999999999" y="611.14" as="targetPoint" />
          </mxGeometry>
        </mxCell>
        <mxCell id="JdIku7EspXfbWxuUCBQc-28" value="AbstractAutowireCapableBeanFactory" style="swimlane;fontStyle=1;align=center;verticalAlign=top;childLayout=stackLayout;horizontal=1;startSize=26;horizontalStack=0;resizeParent=1;resizeParentMax=0;resizeLast=0;collapsible=1;marginBottom=0;fontColor=#000000;" vertex="1" parent="1">
          <mxGeometry x="455" y="560" width="240" height="230" as="geometry" />
        </mxCell>
        <mxCell id="JdIku7EspXfbWxuUCBQc-29" value="+ instantiationStrategy: InstantiationStrategy" style="text;strokeColor=none;fillColor=none;align=left;verticalAlign=top;spacingLeft=4;spacingRight=4;overflow=hidden;rotatable=0;points=[[0,0.5],[1,0.5]];portConstraint=eastwest;fontColor=#000000;" vertex="1" parent="JdIku7EspXfbWxuUCBQc-28">
          <mxGeometry y="26" width="240" height="26" as="geometry" />
        </mxCell>
        <mxCell id="JdIku7EspXfbWxuUCBQc-30" value="+ creatBean(String beanName, BeanDefinition bd): Obj（实现" style="text;strokeColor=none;fillColor=none;align=left;verticalAlign=top;spacingLeft=4;spacingRight=4;overflow=hidden;rotatable=0;points=[[0,0.5],[1,0.5]];portConstraint=eastwest;fontColor=#000000;" vertex="1" parent="JdIku7EspXfbWxuUCBQc-28">
          <mxGeometry y="52" width="240" height="88" as="geometry" />
        </mxCell>
        <mxCell id="JdIku7EspXfbWxuUCBQc-126" value="&lt;pre style=&quot;font-family: &amp;quot;JetBrains Mono&amp;quot;, monospace; font-size: 10.5pt;&quot;&gt;&lt;span style=&quot;background-color: rgb(255, 255, 255);&quot;&gt;&lt;font color=&quot;#009900&quot;&gt;+applyBeanPostProcessorsBeforeInitialization&lt;/font&gt;&lt;/span&gt;&lt;/pre&gt;&lt;pre style=&quot;font-family: &amp;quot;JetBrains Mono&amp;quot;, monospace; font-size: 10.5pt;&quot;&gt;&lt;pre style=&quot;border-color: var(--border-color); font-family: &amp;quot;JetBrains Mono&amp;quot;, monospace; font-size: 10.5pt;&quot;&gt;&lt;font color=&quot;#009900&quot;&gt;+applyBeanPostProcessorsAfterInitialization&lt;/font&gt;&lt;/pre&gt;&lt;/pre&gt;" style="text;whiteSpace=wrap;html=1;fontColor=none;" vertex="1" parent="JdIku7EspXfbWxuUCBQc-28">
          <mxGeometry y="140" width="240" height="90" as="geometry" />
        </mxCell>
        <mxCell id="JdIku7EspXfbWxuUCBQc-31" value="" style="endArrow=diamondThin;endFill=1;endSize=24;html=1;rounded=0;fontColor=#000000;exitX=-0.021;exitY=0.593;exitDx=0;exitDy=0;exitPerimeter=0;entryX=1;entryY=0.5;entryDx=0;entryDy=0;" edge="1" parent="1" source="JdIku7EspXfbWxuUCBQc-19" target="JdIku7EspXfbWxuUCBQc-29">
          <mxGeometry width="160" relative="1" as="geometry">
            <mxPoint x="460" y="620" as="sourcePoint" />
            <mxPoint x="700" y="570" as="targetPoint" />
          </mxGeometry>
        </mxCell>
        <mxCell id="JdIku7EspXfbWxuUCBQc-32" value="+ creatBean(String beanName, BeanDefinition bd,&#xa; Obj[] args): Obj（实现）&#xa;" style="text;strokeColor=none;fillColor=none;align=left;verticalAlign=top;spacingLeft=4;spacingRight=4;overflow=hidden;rotatable=0;points=[[0,0.5],[1,0.5]];portConstraint=eastwest;fontColor=default;" vertex="1" parent="1">
          <mxGeometry x="450" y="630" width="430" height="30" as="geometry" />
        </mxCell>
        <mxCell id="JdIku7EspXfbWxuUCBQc-33" value="&lt;span style=&quot;font-family: Helvetica; font-size: 12px; font-style: normal; font-variant-ligatures: normal; font-variant-caps: normal; font-weight: 400; letter-spacing: normal; orphans: 2; text-align: left; text-indent: 0px; text-transform: none; widows: 2; word-spacing: 0px; -webkit-text-stroke-width: 0px; background-color: rgb(251, 251, 251); text-decoration-thickness: initial; text-decoration-style: initial; text-decoration-color: initial; float: none; display: inline !important;&quot;&gt;+ applyPropertyValues(String beanName, Object bean, BeanDefinition beanDefinition)&lt;/span&gt;" style="text;whiteSpace=wrap;html=1;fontColor=none;" vertex="1" parent="1">
          <mxGeometry x="450" y="660" width="290" height="20" as="geometry" />
        </mxCell>
        <mxCell id="JdIku7EspXfbWxuUCBQc-34" value="Extends" style="endArrow=block;endSize=16;endFill=0;html=1;rounded=0;fontColor=#000000;exitX=0.5;exitY=0;exitDx=0;exitDy=0;" edge="1" parent="1" source="JdIku7EspXfbWxuUCBQc-11">
          <mxGeometry width="160" relative="1" as="geometry">
            <mxPoint x="650" y="590" as="sourcePoint" />
            <mxPoint x="590" y="790" as="targetPoint" />
          </mxGeometry>
        </mxCell>
        <mxCell id="JdIku7EspXfbWxuUCBQc-35" value="PropertyValue" style="swimlane;fontStyle=0;childLayout=stackLayout;horizontal=1;startSize=26;fillColor=none;horizontalStack=0;resizeParent=1;resizeParentMax=0;resizeLast=0;collapsible=1;marginBottom=0;strokeColor=#000000;fontColor=#000000;" vertex="1" parent="1">
          <mxGeometry x="850" y="850" width="140" height="78" as="geometry" />
        </mxCell>
        <mxCell id="JdIku7EspXfbWxuUCBQc-36" value="+ name: String" style="text;strokeColor=none;fillColor=none;align=left;verticalAlign=top;spacingLeft=4;spacingRight=4;overflow=hidden;rotatable=0;points=[[0,0.5],[1,0.5]];portConstraint=eastwest;fontColor=#1A1A1A;" vertex="1" parent="JdIku7EspXfbWxuUCBQc-35">
          <mxGeometry y="26" width="140" height="26" as="geometry" />
        </mxCell>
        <mxCell id="JdIku7EspXfbWxuUCBQc-37" value="+ value: Object" style="text;strokeColor=none;fillColor=none;align=left;verticalAlign=top;spacingLeft=4;spacingRight=4;overflow=hidden;rotatable=0;points=[[0,0.5],[1,0.5]];portConstraint=eastwest;fontColor=#000000;" vertex="1" parent="JdIku7EspXfbWxuUCBQc-35">
          <mxGeometry y="52" width="140" height="26" as="geometry" />
        </mxCell>
        <mxCell id="JdIku7EspXfbWxuUCBQc-38" value="&lt;font color=&quot;#000000&quot;&gt;«interface»&lt;br&gt;&lt;b&gt;BeanReference&lt;/b&gt;&lt;/font&gt;" style="html=1;strokeColor=#000000;fontColor=#009900;" vertex="1" parent="1">
          <mxGeometry x="1023" y="850" width="110" height="50" as="geometry" />
        </mxCell>
        <mxCell id="JdIku7EspXfbWxuUCBQc-39" value="" style="endArrow=diamondThin;endFill=1;endSize=24;html=1;rounded=0;fontColor=#009900;entryX=0.862;entryY=1.2;entryDx=0;entryDy=0;exitX=0;exitY=0;exitDx=0;exitDy=0;entryPerimeter=0;" edge="1" parent="1" source="JdIku7EspXfbWxuUCBQc-3" target="JdIku7EspXfbWxuUCBQc-33">
          <mxGeometry width="160" relative="1" as="geometry">
            <mxPoint x="880" y="840" as="sourcePoint" />
            <mxPoint x="810" y="590" as="targetPoint" />
          </mxGeometry>
        </mxCell>
        <mxCell id="JdIku7EspXfbWxuUCBQc-40" value="&lt;p style=&quot;margin:0px;margin-top:4px;text-align:center;&quot;&gt;&lt;i&gt;&amp;lt;&amp;lt;Interface&amp;gt;&amp;gt;&lt;/i&gt;&lt;br&gt;&lt;b&gt;Resource&lt;/b&gt;&lt;/p&gt;&lt;p style=&quot;margin:0px;margin-left:4px;&quot;&gt;&lt;br&gt;&lt;/p&gt;&lt;hr size=&quot;1&quot;&gt;&lt;p style=&quot;margin:0px;margin-left:4px;&quot;&gt;+&amp;nbsp;getInputStream&lt;span style=&quot;background-color: initial;&quot;&gt;(): InputStream&lt;/span&gt;&lt;/p&gt;" style="verticalAlign=top;align=left;overflow=fill;fontSize=12;fontFamily=Helvetica;html=1;fontColor=#000000;" vertex="1" parent="1">
          <mxGeometry x="-300" y="85" width="190" height="90" as="geometry" />
        </mxCell>
        <mxCell id="JdIku7EspXfbWxuUCBQc-41" value="&lt;p style=&quot;margin:0px;margin-top:4px;text-align:center;&quot;&gt;&lt;i&gt;&amp;lt;&amp;lt;Interface&amp;gt;&amp;gt;&lt;/i&gt;&lt;br&gt;&lt;b&gt;ResourceLoader&lt;/b&gt;&lt;/p&gt;&lt;p style=&quot;margin:0px;margin-left:4px;&quot;&gt;&lt;br&gt;&lt;/p&gt;&lt;hr size=&quot;1&quot;&gt;&lt;p style=&quot;margin:0px;margin-left:4px;&quot;&gt;+&amp;nbsp;getResource&lt;span style=&quot;background-color: initial;&quot;&gt;(String location): Resource&lt;/span&gt;&lt;/p&gt;" style="verticalAlign=top;align=left;overflow=fill;fontSize=12;fontFamily=Helvetica;html=1;fontColor=#000000;" vertex="1" parent="1">
          <mxGeometry x="-770" y="105" width="230" height="90" as="geometry" />
        </mxCell>
        <mxCell id="JdIku7EspXfbWxuUCBQc-42" value="ClassPathResource" style="swimlane;fontStyle=1;align=center;verticalAlign=top;childLayout=stackLayout;horizontal=1;startSize=26;horizontalStack=0;resizeParent=1;resizeParentMax=0;resizeLast=0;collapsible=1;marginBottom=0;fontColor=#000000;" vertex="1" parent="1">
          <mxGeometry x="-460" y="266" width="160" height="60" as="geometry" />
        </mxCell>
        <mxCell id="JdIku7EspXfbWxuUCBQc-43" value="" style="line;strokeWidth=1;fillColor=none;align=left;verticalAlign=middle;spacingTop=-1;spacingLeft=3;spacingRight=3;rotatable=0;labelPosition=right;points=[];portConstraint=eastwest;strokeColor=inherit;fontColor=#000000;" vertex="1" parent="JdIku7EspXfbWxuUCBQc-42">
          <mxGeometry y="26" width="160" height="8" as="geometry" />
        </mxCell>
        <mxCell id="JdIku7EspXfbWxuUCBQc-44" value="+ getInputStream(): InputStream" style="text;strokeColor=none;fillColor=none;align=left;verticalAlign=top;spacingLeft=4;spacingRight=4;overflow=hidden;rotatable=0;points=[[0,0.5],[1,0.5]];portConstraint=eastwest;fontColor=#000000;" vertex="1" parent="JdIku7EspXfbWxuUCBQc-42">
          <mxGeometry y="34" width="160" height="26" as="geometry" />
        </mxCell>
        <mxCell id="JdIku7EspXfbWxuUCBQc-45" value="FileSystemResource" style="swimlane;fontStyle=1;align=center;verticalAlign=top;childLayout=stackLayout;horizontal=1;startSize=26;horizontalStack=0;resizeParent=1;resizeParentMax=0;resizeLast=0;collapsible=1;marginBottom=0;fontColor=#000000;" vertex="1" parent="1">
          <mxGeometry x="-260" y="266" width="160" height="60" as="geometry" />
        </mxCell>
        <mxCell id="JdIku7EspXfbWxuUCBQc-46" value="" style="line;strokeWidth=1;fillColor=none;align=left;verticalAlign=middle;spacingTop=-1;spacingLeft=3;spacingRight=3;rotatable=0;labelPosition=right;points=[];portConstraint=eastwest;strokeColor=inherit;fontColor=#000000;" vertex="1" parent="JdIku7EspXfbWxuUCBQc-45">
          <mxGeometry y="26" width="160" height="8" as="geometry" />
        </mxCell>
        <mxCell id="JdIku7EspXfbWxuUCBQc-47" value="+ getInputStream(): InputStream" style="text;strokeColor=none;fillColor=none;align=left;verticalAlign=top;spacingLeft=4;spacingRight=4;overflow=hidden;rotatable=0;points=[[0,0.5],[1,0.5]];portConstraint=eastwest;fontColor=#000000;" vertex="1" parent="JdIku7EspXfbWxuUCBQc-45">
          <mxGeometry y="34" width="160" height="26" as="geometry" />
        </mxCell>
        <mxCell id="JdIku7EspXfbWxuUCBQc-48" value="UrlResource" style="swimlane;fontStyle=1;align=center;verticalAlign=top;childLayout=stackLayout;horizontal=1;startSize=26;horizontalStack=0;resizeParent=1;resizeParentMax=0;resizeLast=0;collapsible=1;marginBottom=0;fontColor=#000000;" vertex="1" parent="1">
          <mxGeometry x="-50" y="266" width="160" height="60" as="geometry" />
        </mxCell>
        <mxCell id="JdIku7EspXfbWxuUCBQc-49" value="" style="line;strokeWidth=1;fillColor=none;align=left;verticalAlign=middle;spacingTop=-1;spacingLeft=3;spacingRight=3;rotatable=0;labelPosition=right;points=[];portConstraint=eastwest;strokeColor=inherit;fontColor=#000000;" vertex="1" parent="JdIku7EspXfbWxuUCBQc-48">
          <mxGeometry y="26" width="160" height="8" as="geometry" />
        </mxCell>
        <mxCell id="JdIku7EspXfbWxuUCBQc-50" value="+ getInputStream(): InputStream" style="text;strokeColor=none;fillColor=none;align=left;verticalAlign=top;spacingLeft=4;spacingRight=4;overflow=hidden;rotatable=0;points=[[0,0.5],[1,0.5]];portConstraint=eastwest;fontColor=#000000;" vertex="1" parent="JdIku7EspXfbWxuUCBQc-48">
          <mxGeometry y="34" width="160" height="26" as="geometry" />
        </mxCell>
        <mxCell id="JdIku7EspXfbWxuUCBQc-51" value="" style="endArrow=block;dashed=1;endFill=0;endSize=12;html=1;rounded=0;exitX=0.5;exitY=0;exitDx=0;exitDy=0;entryX=1;entryY=1;entryDx=0;entryDy=0;fontColor=#000000;" edge="1" parent="1" source="JdIku7EspXfbWxuUCBQc-48" target="JdIku7EspXfbWxuUCBQc-40">
          <mxGeometry width="160" relative="1" as="geometry">
            <mxPoint x="100" y="175" as="sourcePoint" />
            <mxPoint x="260" y="175" as="targetPoint" />
          </mxGeometry>
        </mxCell>
        <mxCell id="JdIku7EspXfbWxuUCBQc-52" value="" style="endArrow=block;dashed=1;endFill=0;endSize=12;html=1;rounded=0;entryX=0.5;entryY=1;entryDx=0;entryDy=0;fontColor=#000000;" edge="1" parent="1" target="JdIku7EspXfbWxuUCBQc-40">
          <mxGeometry width="160" relative="1" as="geometry">
            <mxPoint x="-190" y="265" as="sourcePoint" />
            <mxPoint x="-200" y="185" as="targetPoint" />
          </mxGeometry>
        </mxCell>
        <mxCell id="JdIku7EspXfbWxuUCBQc-53" value="" style="endArrow=block;dashed=1;endFill=0;endSize=12;html=1;rounded=0;exitX=0.569;exitY=-0.05;exitDx=0;exitDy=0;exitPerimeter=0;entryX=0;entryY=1;entryDx=0;entryDy=0;fontColor=#000000;" edge="1" parent="1" source="JdIku7EspXfbWxuUCBQc-42" target="JdIku7EspXfbWxuUCBQc-40">
          <mxGeometry width="160" relative="1" as="geometry">
            <mxPoint x="50" y="286" as="sourcePoint" />
            <mxPoint x="-200" y="175" as="targetPoint" />
          </mxGeometry>
        </mxCell>
        <mxCell id="JdIku7EspXfbWxuUCBQc-54" value="DefaultResourceLoader" style="swimlane;fontStyle=1;align=center;verticalAlign=top;childLayout=stackLayout;horizontal=1;startSize=26;horizontalStack=0;resizeParent=1;resizeParentMax=0;resizeLast=0;collapsible=1;marginBottom=0;fontColor=#000000;" vertex="1" parent="1">
          <mxGeometry x="-450" y="-30" width="180" height="64" as="geometry" />
        </mxCell>
        <mxCell id="JdIku7EspXfbWxuUCBQc-55" value="" style="line;strokeWidth=1;fillColor=none;align=left;verticalAlign=middle;spacingTop=-1;spacingLeft=3;spacingRight=3;rotatable=0;labelPosition=right;points=[];portConstraint=eastwest;strokeColor=inherit;fontColor=#000000;" vertex="1" parent="JdIku7EspXfbWxuUCBQc-54">
          <mxGeometry y="26" width="180" height="8" as="geometry" />
        </mxCell>
        <mxCell id="JdIku7EspXfbWxuUCBQc-56" value="+ getResource(String location): Resource" style="text;strokeColor=none;fillColor=none;align=left;verticalAlign=top;spacingLeft=4;spacingRight=4;overflow=hidden;rotatable=0;points=[[0,0.5],[1,0.5]];portConstraint=eastwest;fontColor=#000000;" vertex="1" parent="JdIku7EspXfbWxuUCBQc-54">
          <mxGeometry y="34" width="180" height="30" as="geometry" />
        </mxCell>
        <mxCell id="JdIku7EspXfbWxuUCBQc-57" value="" style="endArrow=block;dashed=1;endFill=0;endSize=12;html=1;rounded=0;exitX=0.467;exitY=1.1;exitDx=0;exitDy=0;exitPerimeter=0;entryX=1;entryY=0;entryDx=0;entryDy=0;fontColor=#000000;" edge="1" parent="1" target="JdIku7EspXfbWxuUCBQc-41" source="JdIku7EspXfbWxuUCBQc-56">
          <mxGeometry width="160" relative="1" as="geometry">
            <mxPoint x="-720" y="263" as="sourcePoint" />
            <mxPoint x="-651.04" y="175" as="targetPoint" />
          </mxGeometry>
        </mxCell>
        <mxCell id="JdIku7EspXfbWxuUCBQc-58" value="&lt;p style=&quot;margin:0px;margin-top:4px;text-align:center;&quot;&gt;&lt;i&gt;&amp;lt;&amp;lt;Interface&amp;gt;&amp;gt;&lt;/i&gt;&lt;br&gt;&lt;b&gt;BeanDefinitionReader&lt;/b&gt;&lt;/p&gt;&lt;p style=&quot;margin:0px;margin-left:4px;&quot;&gt;&lt;br&gt;&lt;/p&gt;&lt;hr size=&quot;1&quot;&gt;&lt;p style=&quot;margin:0px;margin-left:4px;&quot;&gt;+ getRegistry(): BeanDifinitionRegistry&lt;br&gt;+ getResourceLoader(): ResourceLoader&lt;/p&gt;&lt;p style=&quot;margin:0px;margin-left:4px;&quot;&gt;+&amp;nbsp;loadBeanDefinitions&lt;span style=&quot;background-color: initial;&quot;&gt;(Resource resource): void&lt;/span&gt;&lt;/p&gt;&lt;p style=&quot;margin:0px;margin-left:4px;&quot;&gt;+&amp;nbsp;loadBeanDefinitions(Resource... resource): void&lt;span style=&quot;background-color: initial;&quot;&gt;&lt;br&gt;&lt;/span&gt;&lt;/p&gt;&lt;p style=&quot;margin:0px;margin-left:4px;&quot;&gt;+&amp;nbsp;loadBeanDefinitions(String location): void&lt;br&gt;&lt;/p&gt;" style="verticalAlign=top;align=left;overflow=fill;fontSize=12;fontFamily=Helvetica;html=1;fontColor=#000000;" vertex="1" parent="1">
          <mxGeometry x="-370" y="450" width="300" height="140" as="geometry" />
        </mxCell>
        <mxCell id="JdIku7EspXfbWxuUCBQc-59" value="AbstratBeanDefinitionReader" style="swimlane;fontStyle=1;align=center;verticalAlign=top;childLayout=stackLayout;horizontal=1;startSize=26;horizontalStack=0;resizeParent=1;resizeParentMax=0;resizeLast=0;collapsible=1;marginBottom=0;fontColor=#000000;" vertex="1" parent="1">
          <mxGeometry x="-370" y="650" width="280" height="68" as="geometry" />
        </mxCell>
        <mxCell id="JdIku7EspXfbWxuUCBQc-60" value="+ registry: BeanDefinitionRegistry&#xa;+ resourceLoader: ResourceLoader" style="text;strokeColor=none;fillColor=none;align=left;verticalAlign=top;spacingLeft=4;spacingRight=4;overflow=hidden;rotatable=0;points=[[0,0.5],[1,0.5]];portConstraint=eastwest;fontColor=#000000;" vertex="1" parent="JdIku7EspXfbWxuUCBQc-59">
          <mxGeometry y="26" width="280" height="34" as="geometry" />
        </mxCell>
        <mxCell id="JdIku7EspXfbWxuUCBQc-61" value="" style="line;strokeWidth=1;fillColor=none;align=left;verticalAlign=middle;spacingTop=-1;spacingLeft=3;spacingRight=3;rotatable=0;labelPosition=right;points=[];portConstraint=eastwest;strokeColor=inherit;fontColor=#000000;" vertex="1" parent="JdIku7EspXfbWxuUCBQc-59">
          <mxGeometry y="60" width="280" height="8" as="geometry" />
        </mxCell>
        <mxCell id="JdIku7EspXfbWxuUCBQc-62" value="XmlBeanDefinitionReader" style="swimlane;fontStyle=1;align=center;verticalAlign=top;childLayout=stackLayout;horizontal=1;startSize=26;horizontalStack=0;resizeParent=1;resizeParentMax=0;resizeLast=0;collapsible=1;marginBottom=0;fontColor=#000000;" vertex="1" parent="1">
          <mxGeometry x="-370" y="790" width="270" height="100" as="geometry" />
        </mxCell>
        <mxCell id="JdIku7EspXfbWxuUCBQc-63" value="" style="line;strokeWidth=1;fillColor=none;align=left;verticalAlign=middle;spacingTop=-1;spacingLeft=3;spacingRight=3;rotatable=0;labelPosition=right;points=[];portConstraint=eastwest;strokeColor=inherit;fontColor=#000000;" vertex="1" parent="JdIku7EspXfbWxuUCBQc-62">
          <mxGeometry y="26" width="270" height="8" as="geometry" />
        </mxCell>
        <mxCell id="JdIku7EspXfbWxuUCBQc-64" value="+ loadBeanDefinitions(Resource resource): void&#xa;+ loadBeanDefinitions(Resource... resource): void&#xa;+ loadBeanDefinitions(String location): void" style="text;strokeColor=none;fillColor=none;align=left;verticalAlign=top;spacingLeft=4;spacingRight=4;overflow=hidden;rotatable=0;points=[[0,0.5],[1,0.5]];portConstraint=eastwest;fontColor=#000000;" vertex="1" parent="JdIku7EspXfbWxuUCBQc-62">
          <mxGeometry y="34" width="270" height="66" as="geometry" />
        </mxCell>
        <mxCell id="JdIku7EspXfbWxuUCBQc-65" value="Extends" style="endArrow=block;endSize=16;endFill=0;html=1;rounded=0;exitX=0.448;exitY=-0.01;exitDx=0;exitDy=0;exitPerimeter=0;entryX=0.436;entryY=0.75;entryDx=0;entryDy=0;entryPerimeter=0;fontColor=#000000;" edge="1" parent="1" source="JdIku7EspXfbWxuUCBQc-62" target="JdIku7EspXfbWxuUCBQc-61">
          <mxGeometry width="160" relative="1" as="geometry">
            <mxPoint x="-250" y="780" as="sourcePoint" />
            <mxPoint x="-90" y="780" as="targetPoint" />
          </mxGeometry>
        </mxCell>
        <mxCell id="JdIku7EspXfbWxuUCBQc-66" value="" style="endArrow=block;dashed=1;endFill=0;endSize=12;html=1;rounded=0;exitX=0.5;exitY=0;exitDx=0;exitDy=0;fontColor=#000000;" edge="1" parent="1" source="JdIku7EspXfbWxuUCBQc-59" target="JdIku7EspXfbWxuUCBQc-58">
          <mxGeometry width="160" relative="1" as="geometry">
            <mxPoint x="30" y="420" as="sourcePoint" />
            <mxPoint x="190" y="420" as="targetPoint" />
          </mxGeometry>
        </mxCell>
        <mxCell id="JdIku7EspXfbWxuUCBQc-67" value="" style="endArrow=diamondThin;endFill=1;endSize=24;html=1;rounded=0;entryX=1;entryY=0.5;entryDx=0;entryDy=0;exitX=0.5;exitY=0;exitDx=0;exitDy=0;" edge="1" parent="1" source="JdIku7EspXfbWxuUCBQc-10" target="JdIku7EspXfbWxuUCBQc-58">
          <mxGeometry width="160" relative="1" as="geometry">
            <mxPoint x="230" y="770" as="sourcePoint" />
            <mxPoint x="240" y="620" as="targetPoint" />
          </mxGeometry>
        </mxCell>
        <mxCell id="JdIku7EspXfbWxuUCBQc-68" value="" style="endArrow=diamondThin;endFill=1;endSize=24;html=1;rounded=0;exitX=0;exitY=0.5;exitDx=0;exitDy=0;entryX=1;entryY=0.75;entryDx=0;entryDy=0;fontColor=#000000;" edge="1" parent="1" source="JdIku7EspXfbWxuUCBQc-40" target="JdIku7EspXfbWxuUCBQc-41">
          <mxGeometry width="160" relative="1" as="geometry">
            <mxPoint x="-460" y="45" as="sourcePoint" />
            <mxPoint x="-300" y="45" as="targetPoint" />
          </mxGeometry>
        </mxCell>
        <mxCell id="JdIku7EspXfbWxuUCBQc-69" value="" style="endArrow=diamondThin;endFill=1;endSize=24;html=1;rounded=0;exitX=0.709;exitY=0.989;exitDx=0;exitDy=0;exitPerimeter=0;entryX=0.5;entryY=0;entryDx=0;entryDy=0;fontColor=#000000;" edge="1" parent="1" source="JdIku7EspXfbWxuUCBQc-41" target="JdIku7EspXfbWxuUCBQc-58">
          <mxGeometry width="160" relative="1" as="geometry">
            <mxPoint x="-350" y="250" as="sourcePoint" />
            <mxPoint x="-190" y="250" as="targetPoint" />
            <Array as="points">
              <mxPoint x="-500" y="350" />
            </Array>
          </mxGeometry>
        </mxCell>
        <mxCell id="JdIku7EspXfbWxuUCBQc-71" value="&lt;p style=&quot;margin:0px;margin-top:4px;text-align:center;&quot;&gt;&lt;i&gt;&amp;lt;&amp;lt;Interface&amp;gt;&amp;gt;&lt;/i&gt;&lt;br&gt;&lt;b&gt;HierachicaBeanFactory&lt;/b&gt;&lt;/p&gt;" style="verticalAlign=top;align=left;overflow=fill;fontSize=12;fontFamily=Helvetica;html=1;fontColor=#009900;" vertex="1" parent="1">
          <mxGeometry x="420" y="-450" width="280" height="60" as="geometry" />
        </mxCell>
        <mxCell id="JdIku7EspXfbWxuUCBQc-74" value="&lt;p style=&quot;margin:0px;margin-top:4px;text-align:center;&quot;&gt;&lt;i&gt;&amp;lt;&amp;lt;Interface&amp;gt;&amp;gt;&lt;/i&gt;&lt;br&gt;&lt;b&gt;BeanFactory&lt;/b&gt;&lt;/p&gt;&lt;hr size=&quot;1&quot;&gt;&lt;p style=&quot;margin:0px;margin-left:4px;&quot;&gt;+ getBean(String beanName): Obj&lt;br&gt;&lt;/p&gt;&lt;p style=&quot;margin:0px;margin-left:4px;&quot;&gt;+ getBean(String beanName, Obj... args): Obj&lt;br&gt;&lt;/p&gt;" style="verticalAlign=top;align=left;overflow=fill;fontSize=12;fontFamily=Helvetica;html=1;strokeColor=#000000;fontColor=#009900;" vertex="1" parent="1">
          <mxGeometry x="455" y="-690" width="210" height="80" as="geometry" />
        </mxCell>
        <mxCell id="JdIku7EspXfbWxuUCBQc-75" value="&lt;p style=&quot;margin:0px;margin-top:4px;text-align:center;&quot;&gt;&lt;i&gt;&amp;lt;&amp;lt;Interface&amp;gt;&amp;gt;&lt;/i&gt;&lt;br&gt;&lt;b&gt;ConfigurableBeanFactory&lt;/b&gt;&lt;/p&gt;&lt;br&gt;&lt;hr size=&quot;1&quot;&gt;&lt;span style=&quot;background-color: rgb(255, 255, 255);&quot;&gt;&amp;nbsp;+&amp;nbsp;addBeanPostProcessor&lt;span style=&quot;font-family: &amp;quot;JetBrains Mono&amp;quot;, monospace; font-size: 10.5pt;&quot;&gt;(BeanPostProcessor beanPostProcessor)&lt;/span&gt;: void&lt;br&gt;&lt;/span&gt;" style="verticalAlign=top;align=left;overflow=fill;fontSize=12;fontFamily=Helvetica;html=1;fontColor=#009900;" vertex="1" parent="1">
          <mxGeometry x="420" y="-320" width="280" height="100" as="geometry" />
        </mxCell>
        <mxCell id="JdIku7EspXfbWxuUCBQc-76" value="Extends" style="endArrow=block;endSize=16;endFill=0;html=1;rounded=0;fontColor=#009900;entryX=0.5;entryY=1;entryDx=0;entryDy=0;exitX=0.5;exitY=0;exitDx=0;exitDy=0;" edge="1" parent="1" source="JdIku7EspXfbWxuUCBQc-75" target="JdIku7EspXfbWxuUCBQc-71">
          <mxGeometry width="160" relative="1" as="geometry">
            <mxPoint x="570" y="-330" as="sourcePoint" />
            <mxPoint x="670" y="-400" as="targetPoint" />
          </mxGeometry>
        </mxCell>
        <mxCell id="JdIku7EspXfbWxuUCBQc-77" value="Extends" style="endArrow=block;endSize=16;endFill=0;html=1;rounded=0;fontColor=#009900;exitX=0.5;exitY=0;exitDx=0;exitDy=0;" edge="1" parent="1" source="JdIku7EspXfbWxuUCBQc-71" target="JdIku7EspXfbWxuUCBQc-74">
          <mxGeometry width="160" relative="1" as="geometry">
            <mxPoint x="580" y="-320" as="sourcePoint" />
            <mxPoint x="570" y="-380" as="targetPoint" />
            <mxPoint as="offset" />
          </mxGeometry>
        </mxCell>
        <mxCell id="JdIku7EspXfbWxuUCBQc-78" value="Extends" style="endArrow=block;endSize=16;endFill=0;html=1;rounded=0;fontColor=#009900;exitX=0.5;exitY=0;exitDx=0;exitDy=0;entryX=0;entryY=0.5;entryDx=0;entryDy=0;" edge="1" parent="1" source="JdIku7EspXfbWxuUCBQc-111" target="JdIku7EspXfbWxuUCBQc-74">
          <mxGeometry width="160" relative="1" as="geometry">
            <mxPoint x="170" y="-470" as="sourcePoint" />
            <mxPoint x="170" y="-630" as="targetPoint" />
            <mxPoint as="offset" />
          </mxGeometry>
        </mxCell>
        <mxCell id="JdIku7EspXfbWxuUCBQc-79" value="Extends" style="endArrow=block;endSize=16;endFill=0;html=1;rounded=0;fontColor=#009900;exitX=0.5;exitY=0;exitDx=0;exitDy=0;entryX=1;entryY=0.5;entryDx=0;entryDy=0;" edge="1" parent="1" target="JdIku7EspXfbWxuUCBQc-74">
          <mxGeometry width="160" relative="1" as="geometry">
            <mxPoint x="899.5" y="-460" as="sourcePoint" />
            <mxPoint x="899.5" y="-620" as="targetPoint" />
            <mxPoint as="offset" />
          </mxGeometry>
        </mxCell>
        <mxCell id="JdIku7EspXfbWxuUCBQc-80" value="&lt;p style=&quot;margin:0px;margin-top:4px;text-align:center;&quot;&gt;&lt;i&gt;&amp;lt;&amp;lt;Interface&amp;gt;&amp;gt;&lt;/i&gt;&lt;br&gt;&lt;b&gt;ConfigurableListableBeanFactory&lt;/b&gt;&lt;/p&gt;&lt;br&gt;&lt;hr size=&quot;1&quot;&gt;&lt;span style=&quot;background-color: rgb(255, 255, 255);&quot;&gt;+&amp;nbsp;&lt;span style=&quot;font-family: &amp;quot;JetBrains Mono&amp;quot;, monospace; font-size: 10.5pt;&quot;&gt;getBeanDefinition&lt;/span&gt;(String beanName):BeanDefinition&lt;br&gt;&lt;/span&gt;+&amp;nbsp;&lt;span style=&quot;font-family: &amp;quot;JetBrains Mono&amp;quot;, monospace; font-size: 10.5pt; background-color: rgb(255, 255, 255);&quot;&gt;preInstantiateSingletons:void&lt;/span&gt;" style="verticalAlign=top;align=left;overflow=fill;fontSize=12;fontFamily=Helvetica;html=1;fontColor=#009900;" vertex="1" parent="1">
          <mxGeometry x="420" y="-150" width="280" height="120" as="geometry" />
        </mxCell>
        <mxCell id="JdIku7EspXfbWxuUCBQc-81" value="Extends" style="endArrow=block;endSize=16;endFill=0;html=1;rounded=0;fontColor=#009900;exitX=0.5;exitY=0;exitDx=0;exitDy=0;" edge="1" parent="1" source="JdIku7EspXfbWxuUCBQc-80" target="JdIku7EspXfbWxuUCBQc-75">
          <mxGeometry width="160" relative="1" as="geometry">
            <mxPoint x="510" y="-300" as="sourcePoint" />
            <mxPoint x="670" y="-300" as="targetPoint" />
          </mxGeometry>
        </mxCell>
        <mxCell id="JdIku7EspXfbWxuUCBQc-82" value="Extends" style="endArrow=block;endSize=16;endFill=0;html=1;rounded=0;fontColor=#009900;exitX=1;exitY=0.5;exitDx=0;exitDy=0;entryX=0.5;entryY=1;entryDx=0;entryDy=0;" edge="1" parent="1" source="JdIku7EspXfbWxuUCBQc-80">
          <mxGeometry width="160" relative="1" as="geometry">
            <mxPoint x="570" y="-140" as="sourcePoint" />
            <mxPoint x="900" y="-360" as="targetPoint" />
          </mxGeometry>
        </mxCell>
        <mxCell id="JdIku7EspXfbWxuUCBQc-83" value="Extends" style="endArrow=block;endSize=16;endFill=0;html=1;rounded=0;fontColor=#009900;exitX=0;exitY=0.25;exitDx=0;exitDy=0;entryX=0.5;entryY=1;entryDx=0;entryDy=0;" edge="1" parent="1" source="JdIku7EspXfbWxuUCBQc-80" target="JdIku7EspXfbWxuUCBQc-111">
          <mxGeometry width="160" relative="1" as="geometry">
            <mxPoint x="580" y="-130" as="sourcePoint" />
            <mxPoint x="180" y="-360" as="targetPoint" />
          </mxGeometry>
        </mxCell>
        <mxCell id="JdIku7EspXfbWxuUCBQc-84" value="" style="endArrow=block;dashed=1;endFill=0;endSize=12;html=1;rounded=0;fontColor=#000000;entryX=0.214;entryY=1.025;entryDx=0;entryDy=0;entryPerimeter=0;exitX=0;exitY=0;exitDx=0;exitDy=0;" edge="1" parent="1" source="JdIku7EspXfbWxuUCBQc-11" target="JdIku7EspXfbWxuUCBQc-80">
          <mxGeometry width="160" relative="1" as="geometry">
            <mxPoint x="470" y="50" as="sourcePoint" />
            <mxPoint x="630" y="50" as="targetPoint" />
            <Array as="points">
              <mxPoint x="370" y="750" />
            </Array>
          </mxGeometry>
        </mxCell>
        <mxCell id="JdIku7EspXfbWxuUCBQc-91" value="&lt;p style=&quot;margin:0px;margin-top:4px;text-align:center;&quot;&gt;&lt;i&gt;&amp;lt;&amp;lt;Interface&amp;gt;&amp;gt;&lt;/i&gt;&lt;br&gt;&lt;b&gt;ApplicationContext&lt;/b&gt;&lt;/p&gt;" style="verticalAlign=top;align=left;overflow=fill;fontSize=12;fontFamily=Helvetica;html=1;fontColor=#009900;" vertex="1" parent="1">
          <mxGeometry x="-480" y="-506" width="240" height="60" as="geometry" />
        </mxCell>
        <mxCell id="JdIku7EspXfbWxuUCBQc-92" value="&lt;p style=&quot;margin:0px;margin-top:4px;text-align:center;&quot;&gt;&lt;i&gt;&amp;lt;&amp;lt;Interface&amp;gt;&amp;gt;&lt;/i&gt;&lt;br&gt;&lt;b&gt;ConfigurableApplicationContext&lt;/b&gt;&lt;/p&gt;&lt;br&gt;&lt;hr size=&quot;1&quot;&gt;&lt;span style=&quot;background-color: rgb(255, 255, 255);&quot;&gt;&amp;nbsp;# refresh(): void&lt;br&gt;&lt;/span&gt;" style="verticalAlign=top;align=left;overflow=fill;fontSize=12;fontFamily=Helvetica;html=1;fontColor=#009900;" vertex="1" parent="1">
          <mxGeometry x="-470" y="-396" width="220" height="100" as="geometry" />
        </mxCell>
        <mxCell id="JdIku7EspXfbWxuUCBQc-93" value="&lt;p style=&quot;margin:0px;margin-top:4px;text-align:center;&quot;&gt;&lt;br&gt;&lt;b&gt;AbstractApplicationContext&lt;/b&gt;&lt;/p&gt;&lt;br&gt;&lt;hr size=&quot;1&quot;&gt;&lt;span style=&quot;background-color: rgb(255, 255, 255);&quot;&gt;&amp;nbsp;+ refresh(): void&lt;br&gt;&lt;span style=&quot;white-space: pre;&quot;&gt;	&lt;/span&gt;# refreshBeanFactory(): void&lt;br&gt;&lt;span style=&quot;white-space: pre;&quot;&gt;	&lt;/span&gt;# getBeanFactory(): ConfigurableListableBeanFactory&lt;br&gt;&lt;span style=&quot;white-space: pre;&quot;&gt;	&lt;/span&gt;- invokeBeanFactoryPostProcessors(beanFacroty)&lt;br&gt;&lt;span style=&quot;white-space: pre;&quot;&gt;	&lt;/span&gt;- registerBeanPostProcessors(beanFacory)&lt;br&gt;&lt;span style=&quot;white-space: pre;&quot;&gt;	&lt;/span&gt;- beanFactory.preInstantiateSingletons()&lt;span style=&quot;white-space: pre;&quot;&gt;	&lt;/span&gt;&lt;br&gt;&lt;/span&gt;" style="verticalAlign=top;align=left;overflow=fill;fontSize=12;fontFamily=Helvetica;html=1;fontColor=#009900;" vertex="1" parent="1">
          <mxGeometry x="-480" y="-246" width="240" height="160" as="geometry" />
        </mxCell>
        <mxCell id="JdIku7EspXfbWxuUCBQc-94" value="" style="endArrow=block;dashed=1;endFill=0;endSize=12;html=1;rounded=0;fontColor=#009900;entryX=0.5;entryY=1;entryDx=0;entryDy=0;exitX=0.5;exitY=0;exitDx=0;exitDy=0;" edge="1" parent="1" source="JdIku7EspXfbWxuUCBQc-93" target="JdIku7EspXfbWxuUCBQc-92">
          <mxGeometry width="160" relative="1" as="geometry">
            <mxPoint x="-380" y="-246" as="sourcePoint" />
            <mxPoint x="-220" y="-246" as="targetPoint" />
          </mxGeometry>
        </mxCell>
        <mxCell id="JdIku7EspXfbWxuUCBQc-95" value="Extends" style="endArrow=block;endSize=16;endFill=0;html=1;rounded=0;fontColor=#000000;exitX=0.5;exitY=1;exitDx=0;exitDy=0;entryX=0.5;entryY=0;entryDx=0;entryDy=0;" edge="1" parent="1" source="JdIku7EspXfbWxuUCBQc-93" target="JdIku7EspXfbWxuUCBQc-54">
          <mxGeometry width="160" relative="1" as="geometry">
            <mxPoint x="-630" y="150" as="sourcePoint" />
            <mxPoint x="-470" y="150" as="targetPoint" />
            <Array as="points" />
          </mxGeometry>
        </mxCell>
        <mxCell id="JdIku7EspXfbWxuUCBQc-96" value="Extends" style="endArrow=block;endSize=16;endFill=0;html=1;rounded=0;fontColor=#009900;exitX=0.5;exitY=0;exitDx=0;exitDy=0;entryX=0.5;entryY=1;entryDx=0;entryDy=0;" edge="1" parent="1" source="JdIku7EspXfbWxuUCBQc-92" target="JdIku7EspXfbWxuUCBQc-91">
          <mxGeometry width="160" relative="1" as="geometry">
            <mxPoint x="-440" y="-256" as="sourcePoint" />
            <mxPoint x="-280" y="-256" as="targetPoint" />
          </mxGeometry>
        </mxCell>
        <mxCell id="JdIku7EspXfbWxuUCBQc-97" value="AbstractRefreshableApplicationContext" style="swimlane;fontStyle=1;align=center;verticalAlign=top;childLayout=stackLayout;horizontal=1;startSize=26;horizontalStack=0;resizeParent=1;resizeParentMax=0;resizeLast=0;collapsible=1;marginBottom=0;labelBackgroundColor=#FFFFFF;fontColor=#009900;" vertex="1" parent="1">
          <mxGeometry x="-890" y="-340" width="270" height="128" as="geometry" />
        </mxCell>
        <mxCell id="JdIku7EspXfbWxuUCBQc-98" value="+ DefaultListableBeanFactory: beanFactory" style="text;strokeColor=none;fillColor=none;align=left;verticalAlign=top;spacingLeft=4;spacingRight=4;overflow=hidden;rotatable=0;points=[[0,0.5],[1,0.5]];portConstraint=eastwest;fontColor=#009900;" vertex="1" parent="JdIku7EspXfbWxuUCBQc-97">
          <mxGeometry y="26" width="270" height="26" as="geometry" />
        </mxCell>
        <mxCell id="JdIku7EspXfbWxuUCBQc-99" value="" style="line;strokeWidth=1;fillColor=none;align=left;verticalAlign=middle;spacingTop=-1;spacingLeft=3;spacingRight=3;rotatable=0;labelPosition=right;points=[];portConstraint=eastwest;strokeColor=inherit;labelBackgroundColor=#FFFFFF;fontColor=#009900;" vertex="1" parent="JdIku7EspXfbWxuUCBQc-97">
          <mxGeometry y="52" width="270" height="8" as="geometry" />
        </mxCell>
        <mxCell id="JdIku7EspXfbWxuUCBQc-114" value="" style="line;strokeWidth=1;fillColor=none;align=left;verticalAlign=middle;spacingTop=-1;spacingLeft=3;spacingRight=3;rotatable=0;labelPosition=right;points=[];portConstraint=eastwest;strokeColor=inherit;labelBackgroundColor=#FFFFFF;fontColor=#009900;" vertex="1" parent="JdIku7EspXfbWxuUCBQc-97">
          <mxGeometry y="60" width="270" height="8" as="geometry" />
        </mxCell>
        <mxCell id="JdIku7EspXfbWxuUCBQc-100" value="+ refreshBeanFactory(): void&#xa;+ getBeanFactory(): ConfigurableListableBeanFactory&#xa;# loadBeanDefnitions(DefaultListableFactory beanFactory)" style="text;strokeColor=none;fillColor=none;align=left;verticalAlign=top;spacingLeft=4;spacingRight=4;overflow=hidden;rotatable=0;points=[[0,0.5],[1,0.5]];portConstraint=eastwest;fontColor=#009900;" vertex="1" parent="JdIku7EspXfbWxuUCBQc-97">
          <mxGeometry y="68" width="270" height="60" as="geometry" />
        </mxCell>
        <mxCell id="JdIku7EspXfbWxuUCBQc-101" value="Extends" style="endArrow=block;endSize=16;endFill=0;html=1;rounded=0;fontColor=#009900;entryX=0;entryY=0.25;entryDx=0;entryDy=0;exitX=1;exitY=0.5;exitDx=0;exitDy=0;" edge="1" parent="1" source="JdIku7EspXfbWxuUCBQc-97" target="JdIku7EspXfbWxuUCBQc-93">
          <mxGeometry width="160" relative="1" as="geometry">
            <mxPoint x="-1010" y="-210" as="sourcePoint" />
            <mxPoint x="-470" y="-50" as="targetPoint" />
          </mxGeometry>
        </mxCell>
        <mxCell id="JdIku7EspXfbWxuUCBQc-102" value="AbstractXmlApplicationContext" style="swimlane;fontStyle=1;align=center;verticalAlign=top;childLayout=stackLayout;horizontal=1;startSize=26;horizontalStack=0;resizeParent=1;resizeParentMax=0;resizeLast=0;collapsible=1;marginBottom=0;labelBackgroundColor=#FFFFFF;fontColor=#009900;" vertex="1" parent="1">
          <mxGeometry x="-890" y="-180" width="270" height="94" as="geometry" />
        </mxCell>
        <mxCell id="JdIku7EspXfbWxuUCBQc-104" value="" style="line;strokeWidth=1;fillColor=none;align=left;verticalAlign=middle;spacingTop=-1;spacingLeft=3;spacingRight=3;rotatable=0;labelPosition=right;points=[];portConstraint=eastwest;strokeColor=inherit;labelBackgroundColor=#FFFFFF;fontColor=#009900;" vertex="1" parent="JdIku7EspXfbWxuUCBQc-102">
          <mxGeometry y="26" width="270" height="8" as="geometry" />
        </mxCell>
        <mxCell id="JdIku7EspXfbWxuUCBQc-105" value="&#xa;+ loadBeanDefnitions(DefaultListableFactory beanFactory)&#xa;# getConfigLocations(): String[]" style="text;strokeColor=none;fillColor=none;align=left;verticalAlign=top;spacingLeft=4;spacingRight=4;overflow=hidden;rotatable=0;points=[[0,0.5],[1,0.5]];portConstraint=eastwest;fontColor=#009900;" vertex="1" parent="JdIku7EspXfbWxuUCBQc-102">
          <mxGeometry y="34" width="270" height="60" as="geometry" />
        </mxCell>
        <mxCell id="JdIku7EspXfbWxuUCBQc-106" value="Extends" style="endArrow=block;endSize=16;endFill=0;html=1;rounded=0;fontColor=#009900;exitX=0.5;exitY=0;exitDx=0;exitDy=0;entryX=0.5;entryY=1;entryDx=0;entryDy=0;entryPerimeter=0;" edge="1" parent="1" source="JdIku7EspXfbWxuUCBQc-102" target="JdIku7EspXfbWxuUCBQc-100">
          <mxGeometry width="160" relative="1" as="geometry">
            <mxPoint x="-680" y="-184" as="sourcePoint" />
            <mxPoint x="-520" y="-184" as="targetPoint" />
          </mxGeometry>
        </mxCell>
        <mxCell id="JdIku7EspXfbWxuUCBQc-107" value="ClasspathXmlApplicationContext" style="swimlane;fontStyle=1;align=center;verticalAlign=top;childLayout=stackLayout;horizontal=1;startSize=26;horizontalStack=0;resizeParent=1;resizeParentMax=0;resizeLast=0;collapsible=1;marginBottom=0;labelBackgroundColor=#FFFFFF;fontColor=#009900;" vertex="1" parent="1">
          <mxGeometry x="-890" y="-44" width="270" height="94" as="geometry" />
        </mxCell>
        <mxCell id="JdIku7EspXfbWxuUCBQc-108" value="" style="line;strokeWidth=1;fillColor=none;align=left;verticalAlign=middle;spacingTop=-1;spacingLeft=3;spacingRight=3;rotatable=0;labelPosition=right;points=[];portConstraint=eastwest;strokeColor=inherit;labelBackgroundColor=#FFFFFF;fontColor=#009900;" vertex="1" parent="JdIku7EspXfbWxuUCBQc-107">
          <mxGeometry y="26" width="270" height="8" as="geometry" />
        </mxCell>
        <mxCell id="JdIku7EspXfbWxuUCBQc-109" value="&#xa;+ getConfigLocations(): String[]" style="text;strokeColor=none;fillColor=none;align=left;verticalAlign=top;spacingLeft=4;spacingRight=4;overflow=hidden;rotatable=0;points=[[0,0.5],[1,0.5]];portConstraint=eastwest;fontColor=#009900;" vertex="1" parent="JdIku7EspXfbWxuUCBQc-107">
          <mxGeometry y="34" width="270" height="60" as="geometry" />
        </mxCell>
        <mxCell id="JdIku7EspXfbWxuUCBQc-110" value="Extends" style="endArrow=block;endSize=16;endFill=0;html=1;rounded=0;fontColor=#009900;exitX=0.452;exitY=0.021;exitDx=0;exitDy=0;exitPerimeter=0;entryX=0.507;entryY=1;entryDx=0;entryDy=0;entryPerimeter=0;" edge="1" parent="1" source="JdIku7EspXfbWxuUCBQc-107" target="JdIku7EspXfbWxuUCBQc-105">
          <mxGeometry width="160" relative="1" as="geometry">
            <mxPoint x="-680" y="-184" as="sourcePoint" />
            <mxPoint x="-520" y="-184" as="targetPoint" />
          </mxGeometry>
        </mxCell>
        <mxCell id="JdIku7EspXfbWxuUCBQc-111" value="&lt;p style=&quot;margin:0px;margin-top:4px;text-align:center;&quot;&gt;&lt;i&gt;&amp;lt;&amp;lt;Interface&amp;gt;&amp;gt;&lt;/i&gt;&lt;br&gt;&lt;b&gt;ListAbleBeanFactory&lt;/b&gt;&lt;/p&gt;&lt;br&gt;&lt;hr size=&quot;1&quot;&gt;&amp;nbsp;+&amp;nbsp;&lt;span style=&quot;background-color: initial;&quot;&gt;getBeansOfType&lt;/span&gt;&lt;span style=&quot;background-color: initial;&quot;&gt;(Class&amp;lt;T&amp;gt; type): Map&amp;lt;String, T&amp;gt;&lt;/span&gt;&lt;br&gt;&lt;p style=&quot;margin:0px;margin-left:4px;&quot;&gt;+ getBeanDefinitionNames(): String[]&lt;/p&gt;" style="verticalAlign=top;align=left;overflow=fill;fontSize=12;fontFamily=Helvetica;html=1;fontColor=#009900;" vertex="1" parent="1">
          <mxGeometry x="30" y="-460" width="280" height="100" as="geometry" />
        </mxCell>
        <mxCell id="JdIku7EspXfbWxuUCBQc-112" value="&lt;p style=&quot;margin:0px;margin-top:4px;text-align:center;&quot;&gt;&lt;i&gt;&amp;lt;&amp;lt;Interface&amp;gt;&amp;gt;&lt;/i&gt;&lt;br&gt;&lt;b&gt;AutowireCapableBeanFactory&lt;/b&gt;&lt;/p&gt;&lt;br&gt;&lt;hr size=&quot;1&quot;&gt;&lt;span style=&quot;background-color: rgb(255, 255, 255);&quot;&gt;&amp;nbsp;+&amp;nbsp;applyBeanPostProcessorsBeforeInitialization&lt;span style=&quot;font-family: &amp;quot;JetBrains Mono&amp;quot;, monospace; font-size: 10.5pt;&quot;&gt;(Object existingBean&lt;/span&gt;&lt;span style=&quot;font-family: &amp;quot;JetBrains Mono&amp;quot;, monospace; font-size: 10.5pt;&quot;&gt;, &lt;/span&gt;&lt;span style=&quot;font-family: &amp;quot;JetBrains Mono&amp;quot;, monospace; font-size: 10.5pt;&quot;&gt;String beanName)&lt;/span&gt;(Class&amp;lt;T&amp;gt; type): Map&amp;lt;String, T&amp;gt;&lt;br&gt;&lt;/span&gt;&lt;p style=&quot;margin:0px;margin-left:4px;&quot;&gt;&lt;span style=&quot;background-color: rgb(255, 255, 255);&quot;&gt;+&amp;nbsp;applyBeanPostProcessorsAfterInitialization&lt;span style=&quot;font-family: &amp;quot;JetBrains Mono&amp;quot;, monospace; font-size: 10.5pt;&quot;&gt;(Object existingBean&lt;/span&gt;&lt;span style=&quot;font-family: &amp;quot;JetBrains Mono&amp;quot;, monospace; font-size: 10.5pt;&quot;&gt;, &lt;/span&gt;&lt;span style=&quot;font-family: &amp;quot;JetBrains Mono&amp;quot;, monospace; font-size: 10.5pt;&quot;&gt;String beanName)&lt;/span&gt;&lt;/span&gt;&lt;/p&gt;" style="verticalAlign=top;align=left;overflow=fill;fontSize=12;fontFamily=Helvetica;html=1;fontColor=#009900;" vertex="1" parent="1">
          <mxGeometry x="770" y="-460" width="280" height="100" as="geometry" />
        </mxCell>
        <mxCell id="JdIku7EspXfbWxuUCBQc-113" value="Extends" style="endArrow=block;endSize=16;endFill=0;html=1;rounded=0;fontColor=#009900;exitX=1;exitY=0.5;exitDx=0;exitDy=0;entryX=-0.011;entryY=0.41;entryDx=0;entryDy=0;entryPerimeter=0;" edge="1" parent="1" source="JdIku7EspXfbWxuUCBQc-91" target="JdIku7EspXfbWxuUCBQc-111">
          <mxGeometry width="160" relative="1" as="geometry">
            <mxPoint x="-590" y="-260" as="sourcePoint" />
            <mxPoint x="-430" y="-260" as="targetPoint" />
          </mxGeometry>
        </mxCell>
        <mxCell id="JdIku7EspXfbWxuUCBQc-116" value=" + addBeanPostProcessor(BeanPostProcessor beanPostProcessor): void" style="text;strokeColor=none;fillColor=none;align=left;verticalAlign=top;spacingLeft=4;spacingRight=4;overflow=hidden;rotatable=0;points=[[0,0.5],[1,0.5]];portConstraint=eastwest;fontColor=#009900;" vertex="1" parent="1">
          <mxGeometry x="460" y="420" width="260" height="20" as="geometry" />
        </mxCell>
        <mxCell id="JdIku7EspXfbWxuUCBQc-122" value="&lt;p style=&quot;margin:0px;margin-top:4px;text-align:center;&quot;&gt;&lt;i&gt;&amp;lt;&amp;lt;Interface&amp;gt;&amp;gt;&lt;/i&gt;&lt;br&gt;&lt;b&gt;BeanFactoryPostProcessor&lt;/b&gt;&lt;/p&gt;&lt;br&gt;&lt;hr size=&quot;1&quot;&gt;&lt;span style=&quot;background-color: rgb(255, 255, 255);&quot;&gt;&amp;nbsp;+&amp;nbsp;postProcessBeanFactory&lt;span style=&quot;font-family: &amp;quot;JetBrains Mono&amp;quot;, monospace; font-size: 10.5pt;&quot;&gt;(ConfigurableListableBeanFactory beanFactory)&lt;/span&gt;:void&lt;/span&gt;" style="verticalAlign=top;align=left;overflow=fill;fontSize=12;fontFamily=Helvetica;html=1;fontColor=#009900;" vertex="1" parent="1">
          <mxGeometry x="-70" y="-250" width="280" height="100" as="geometry" />
        </mxCell>
        <mxCell id="JdIku7EspXfbWxuUCBQc-123" value="&lt;p style=&quot;margin:0px;margin-top:4px;text-align:center;&quot;&gt;&lt;i&gt;&amp;lt;&amp;lt;Interface&amp;gt;&amp;gt;&lt;/i&gt;&lt;br&gt;&lt;b&gt;BeanPostProcessor&lt;/b&gt;&lt;/p&gt;&lt;br&gt;&lt;hr size=&quot;1&quot;&gt;&lt;span style=&quot;background-color: rgb(255, 255, 255);&quot;&gt;&amp;nbsp;+&amp;nbsp;postProcessBeforeInitialization&lt;span style=&quot;font-family: &amp;quot;JetBrains Mono&amp;quot;, monospace; font-size: 10.5pt;&quot;&gt;(Object bean&lt;/span&gt;&lt;span style=&quot;font-family: &amp;quot;JetBrains Mono&amp;quot;, monospace; font-size: 10.5pt;&quot;&gt;, &lt;/span&gt;&lt;span style=&quot;font-family: &amp;quot;JetBrains Mono&amp;quot;, monospace; font-size: 10.5pt;&quot;&gt;String beanName)&lt;/span&gt;: Object&lt;br&gt;&lt;/span&gt;&lt;p style=&quot;margin:0px;margin-left:4px;&quot;&gt;&lt;span style=&quot;background-color: rgb(255, 255, 255);&quot;&gt;+&amp;nbsp;postProcessAfterInitialization&lt;span style=&quot;font-family: &amp;quot;JetBrains Mono&amp;quot;, monospace; font-size: 10.5pt;&quot;&gt;(Object bean&lt;/span&gt;&lt;span style=&quot;font-family: &amp;quot;JetBrains Mono&amp;quot;, monospace; font-size: 10.5pt;&quot;&gt;, &lt;/span&gt;&lt;span style=&quot;font-family: &amp;quot;JetBrains Mono&amp;quot;, monospace; font-size: 10.5pt;&quot;&gt;String beanName)&lt;/span&gt;: Object&lt;/span&gt;&lt;/p&gt;" style="verticalAlign=top;align=left;overflow=fill;fontSize=12;fontFamily=Helvetica;html=1;fontColor=#009900;" vertex="1" parent="1">
          <mxGeometry x="-70" y="-100" width="280" height="100" as="geometry" />
        </mxCell>
        <mxCell id="JdIku7EspXfbWxuUCBQc-124" value="" style="endArrow=diamondThin;endFill=1;endSize=24;html=1;rounded=0;fontColor=#009900;exitX=-0.004;exitY=0.57;exitDx=0;exitDy=0;exitPerimeter=0;entryX=1.004;entryY=0.606;entryDx=0;entryDy=0;entryPerimeter=0;" edge="1" parent="1" source="JdIku7EspXfbWxuUCBQc-122" target="JdIku7EspXfbWxuUCBQc-93">
          <mxGeometry width="160" relative="1" as="geometry">
            <mxPoint x="230" y="-170" as="sourcePoint" />
            <mxPoint x="390" y="-170" as="targetPoint" />
            <Array as="points">
              <mxPoint x="-230" y="-140" />
            </Array>
          </mxGeometry>
        </mxCell>
        <mxCell id="JdIku7EspXfbWxuUCBQc-125" value="" style="endArrow=diamondThin;endFill=1;endSize=24;html=1;rounded=0;fontColor=#009900;exitX=-0.011;exitY=0.44;exitDx=0;exitDy=0;exitPerimeter=0;entryX=1.004;entryY=0.606;entryDx=0;entryDy=0;entryPerimeter=0;" edge="1" parent="1" source="JdIku7EspXfbWxuUCBQc-123">
          <mxGeometry width="160" relative="1" as="geometry">
            <mxPoint x="-61.11999999999989" y="-183" as="sourcePoint" />
            <mxPoint x="-229.03999999999996" y="-139.03999999999996" as="targetPoint" />
            <Array as="points">
              <mxPoint x="-230" y="-120" />
            </Array>
          </mxGeometry>
        </mxCell>
      </root>
    </mxGraphModel>
  </diagram>
</mxfile>
